<mxfile host="Electron" agent="Mozilla/5.0 (X11; Linux x86_64) AppleWebKit/537.36 (KHTML, like Gecko) draw.io/26.2.2 Chrome/134.0.6998.178 Electron/35.1.2 Safari/537.36" version="26.2.2">
  <diagram id="11eAHBRrNIEwB-Tkvam0" name="Page-1">
    <mxGraphModel dx="784" dy="2448" grid="1" gridSize="10" guides="1" tooltips="1" connect="1" arrows="1" fold="1" page="1" pageScale="1" pageWidth="850" pageHeight="1100" math="0" shadow="0">
      <root>
        <mxCell id="0" />
        <mxCell id="1" parent="0" />
        <mxCell id="lVq0YVk2atilzudD0r1q-37" value="&lt;b style=&quot;font-size: 20px;&quot;&gt;vram_if&lt;/b&gt;" style="rounded=0;whiteSpace=wrap;html=1;direction=east;verticalAlign=top;fontSize=20;points=[[0,0,0,0,0],[0,0.25,0,0,0],[0,0.51,0,0,0],[0,0.75,0,0,0],[0,1,0,0,0],[0.13,1,0,0,0],[0.25,0,0,0,0],[0.25,1,0,0,0],[0.37,1,0,0,0],[0.5,0,0,0,0],[0.5,1,0,0,0],[0.63,1,0,0,0],[0.75,0,0,0,0],[0.75,1,0,0,0],[0.87,1,0,0,0],[1,0,0,0,0],[1,0.25,0,0,0],[1,0.51,0,0,0],[1,0.75,0,0,0],[1,1,0,0,0]];" parent="1" vertex="1">
          <mxGeometry x="280" y="-430" width="510" height="237" as="geometry" />
        </mxCell>
        <mxCell id="bke2pzSlPwA9_ymp5hyP-1" value="main_ram" style="rounded=0;whiteSpace=wrap;html=1;verticalAlign=top;fontStyle=1;fontSize=20;" parent="1" vertex="1">
          <mxGeometry x="415" y="-390" width="240" height="98.5" as="geometry" />
        </mxCell>
        <mxCell id="lVq0YVk2atilzudD0r1q-149" value="sprcol_irq" style="endArrow=classic;html=1;rounded=0;fontSize=20;targetPerimeterSpacing=0;exitX=1;exitY=0.75;exitDx=0;exitDy=0;" parent="1" source="lVq0YVk2atilzudD0r1q-22" edge="1">
          <mxGeometry x="1" y="-50" width="50" height="50" relative="1" as="geometry">
            <mxPoint x="1080" y="10" as="sourcePoint" />
            <mxPoint x="1100" y="-42" as="targetPoint" />
            <mxPoint x="49" y="-48" as="offset" />
          </mxGeometry>
        </mxCell>
        <mxCell id="lVq0YVk2atilzudD0r1q-148" value="line_irq" style="endArrow=classic;html=1;rounded=0;fontSize=20;targetPerimeterSpacing=0;exitX=1;exitY=0.5;exitDx=0;exitDy=0;" parent="1" source="lVq0YVk2atilzudD0r1q-32" edge="1">
          <mxGeometry x="1" y="40" width="50" height="50" relative="1" as="geometry">
            <mxPoint x="860" y="370" as="sourcePoint" />
            <mxPoint x="790" y="323" as="targetPoint" />
            <mxPoint x="40" y="37" as="offset" />
          </mxGeometry>
        </mxCell>
        <mxCell id="lVq0YVk2atilzudD0r1q-20" value="wr_idx&lt;br style=&quot;font-size: 18px;&quot;&gt;wr_en&lt;br style=&quot;font-size: 18px;&quot;&gt;wr_data (8)" style="endArrow=classic;html=1;rounded=0;endFill=1;edgeStyle=orthogonalEdgeStyle;fontSize=18;entryX=0.5;entryY=0;entryDx=0;entryDy=0;shape=flexArrow;" parent="1" source="lVq0YVk2atilzudD0r1q-15" target="lVq0YVk2atilzudD0r1q-19" edge="1">
          <mxGeometry x="0.6319" y="-45" width="50" height="50" relative="1" as="geometry">
            <mxPoint x="430" y="-10" as="sourcePoint" />
            <mxPoint x="480" y="40" as="targetPoint" />
            <Array as="points">
              <mxPoint x="600" y="30" />
              <mxPoint x="520" y="30" />
            </Array>
            <mxPoint x="25" y="-40" as="offset" />
          </mxGeometry>
        </mxCell>
        <mxCell id="lVq0YVk2atilzudD0r1q-1" value="&lt;b&gt;Layer 0 Renderer&lt;/b&gt;" style="rounded=0;whiteSpace=wrap;html=1;direction=east;fontSize=20;" parent="1" vertex="1">
          <mxGeometry x="250" y="-87" width="120" height="60" as="geometry" />
        </mxCell>
        <mxCell id="lVq0YVk2atilzudD0r1q-2" value="line_idx&lt;br style=&quot;font-size: 18px;&quot;&gt;render_start" style="endArrow=none;html=1;rounded=0;startArrow=classic;startFill=1;edgeStyle=orthogonalEdgeStyle;exitX=0.75;exitY=1;exitDx=0;exitDy=0;entryX=0.097;entryY=0.001;entryDx=0;entryDy=0;entryPerimeter=0;fontSize=18;align=left;" parent="1" source="lVq0YVk2atilzudD0r1q-1" target="lVq0YVk2atilzudD0r1q-32" edge="1">
          <mxGeometry x="-0.7925" y="10" width="50" height="50" relative="1" as="geometry">
            <mxPoint x="130" y="30" as="sourcePoint" />
            <mxPoint x="570" y="290" as="targetPoint" />
            <Array as="points">
              <mxPoint x="340" y="270" />
              <mxPoint x="569" y="270" />
            </Array>
            <mxPoint as="offset" />
          </mxGeometry>
        </mxCell>
        <mxCell id="lVq0YVk2atilzudD0r1q-3" value="reg_if" style="endArrow=classic;html=1;rounded=0;startArrow=classic;startFill=1;endFill=1;fontSize=18;" parent="1" source="lVq0YVk2atilzudD0r1q-1" edge="1">
          <mxGeometry x="1" y="30" width="50" height="50" relative="1" as="geometry">
            <mxPoint x="300" y="-70" as="sourcePoint" />
            <mxPoint x="400" y="-57" as="targetPoint" />
            <mxPoint x="29" y="27" as="offset" />
          </mxGeometry>
        </mxCell>
        <mxCell id="lVq0YVk2atilzudD0r1q-4" value="" style="endArrow=classic;html=1;rounded=0;startArrow=none;startFill=0;endFill=1;exitX=0.37;exitY=1;exitDx=0;exitDy=0;edgeStyle=orthogonalEdgeStyle;fontSize=18;shape=flexArrow;exitPerimeter=0;" parent="1" source="lVq0YVk2atilzudD0r1q-37" target="lVq0YVk2atilzudD0r1q-1" edge="1">
          <mxGeometry width="50" height="50" relative="1" as="geometry">
            <mxPoint x="180" y="-120" as="sourcePoint" />
            <mxPoint x="210" y="-70" as="targetPoint" />
          </mxGeometry>
        </mxCell>
        <mxCell id="lVq0YVk2atilzudD0r1q-11" value="&lt;b&gt;layer_line_buffer&lt;/b&gt;" style="rounded=0;whiteSpace=wrap;html=1;direction=east;fontSize=18;verticalAlign=top;" parent="1" vertex="1">
          <mxGeometry x="156" y="60" width="160" height="100" as="geometry" />
        </mxCell>
        <mxCell id="lVq0YVk2atilzudD0r1q-13" value="wr_idx&lt;br style=&quot;font-size: 18px;&quot;&gt;wr_en&lt;br style=&quot;font-size: 18px;&quot;&gt;wr_data (8)" style="endArrow=classic;html=1;rounded=0;startArrow=none;startFill=0;endFill=1;edgeStyle=orthogonalEdgeStyle;fontSize=18;exitX=0.25;exitY=1;exitDx=0;exitDy=0;shape=flexArrow;align=right;" parent="1" source="lVq0YVk2atilzudD0r1q-1" target="lVq0YVk2atilzudD0r1q-11" edge="1">
          <mxGeometry x="0.3359" y="-31" width="50" height="50" relative="1" as="geometry">
            <mxPoint x="40" y="-10" as="sourcePoint" />
            <mxPoint x="90" y="40" as="targetPoint" />
            <mxPoint x="15" y="-27" as="offset" />
          </mxGeometry>
        </mxCell>
        <mxCell id="lVq0YVk2atilzudD0r1q-15" value="&lt;b&gt;Layer 1 Renderer&lt;/b&gt;" style="rounded=0;whiteSpace=wrap;html=1;direction=east;fontSize=20;" parent="1" vertex="1">
          <mxGeometry x="540" y="-83" width="120" height="60" as="geometry" />
        </mxCell>
        <mxCell id="lVq0YVk2atilzudD0r1q-16" value="line_idx&lt;br style=&quot;font-size: 18px;&quot;&gt;render_start" style="endArrow=none;html=1;rounded=0;startArrow=classic;startFill=1;edgeStyle=orthogonalEdgeStyle;exitX=0.75;exitY=1;exitDx=0;exitDy=0;fontSize=18;align=left;" parent="1" source="lVq0YVk2atilzudD0r1q-15" edge="1">
          <mxGeometry x="-0.3031" y="10" width="50" height="50" relative="1" as="geometry">
            <mxPoint x="520" y="30" as="sourcePoint" />
            <mxPoint x="670" y="290" as="targetPoint" />
            <mxPoint y="-1" as="offset" />
          </mxGeometry>
        </mxCell>
        <mxCell id="lVq0YVk2atilzudD0r1q-17" value="reg_if" style="endArrow=classic;html=1;rounded=0;startArrow=classic;startFill=1;endFill=1;fontSize=18;" parent="1" source="lVq0YVk2atilzudD0r1q-15" edge="1">
          <mxGeometry x="1" y="30" width="50" height="50" relative="1" as="geometry">
            <mxPoint x="690" y="-70" as="sourcePoint" />
            <mxPoint x="690" y="-53" as="targetPoint" />
            <mxPoint x="29" y="30" as="offset" />
          </mxGeometry>
        </mxCell>
        <mxCell id="lVq0YVk2atilzudD0r1q-18" value="" style="endArrow=classic;html=1;rounded=0;startArrow=none;startFill=0;endFill=1;exitX=0.5;exitY=1;exitDx=0;exitDy=0;fontSize=18;edgeStyle=orthogonalEdgeStyle;shape=flexArrow;" parent="1" source="lVq0YVk2atilzudD0r1q-132" target="lVq0YVk2atilzudD0r1q-15" edge="1">
          <mxGeometry width="50" height="50" relative="1" as="geometry">
            <mxPoint x="570" y="-120" as="sourcePoint" />
            <mxPoint x="600" y="-70" as="targetPoint" />
          </mxGeometry>
        </mxCell>
        <mxCell id="lVq0YVk2atilzudD0r1q-19" value="&lt;b&gt;layer_line_buffer&lt;/b&gt;" style="rounded=0;whiteSpace=wrap;html=1;direction=east;fontSize=18;verticalAlign=top;" parent="1" vertex="1">
          <mxGeometry x="440" y="60" width="160" height="100" as="geometry" />
        </mxCell>
        <mxCell id="lVq0YVk2atilzudD0r1q-22" value="&lt;b&gt;Sprite&lt;br style=&quot;font-size: 20px;&quot;&gt;Renderer&lt;/b&gt;" style="rounded=0;whiteSpace=wrap;html=1;direction=east;fontSize=20;" parent="1" vertex="1">
          <mxGeometry x="930" y="-87" width="140" height="60" as="geometry" />
        </mxCell>
        <mxCell id="lVq0YVk2atilzudD0r1q-23" value="reg_if" style="endArrow=classic;html=1;rounded=0;startArrow=classic;startFill=1;endFill=1;fontSize=18;" parent="1" source="lVq0YVk2atilzudD0r1q-22" edge="1">
          <mxGeometry x="1" y="24" width="50" height="50" relative="1" as="geometry">
            <mxPoint x="1000" y="-60" as="sourcePoint" />
            <mxPoint x="1100" y="-57" as="targetPoint" />
            <mxPoint x="20" y="11" as="offset" />
          </mxGeometry>
        </mxCell>
        <mxCell id="lVq0YVk2atilzudD0r1q-25" value="" style="endArrow=classic;html=1;rounded=0;startArrow=none;startFill=0;endFill=1;edgeStyle=elbowEdgeStyle;fontSize=18;elbow=vertical;exitX=0.87;exitY=1;exitDx=0;exitDy=0;shape=flexArrow;exitPerimeter=0;" parent="1" source="lVq0YVk2atilzudD0r1q-37" target="lVq0YVk2atilzudD0r1q-22" edge="1">
          <mxGeometry width="50" height="50" relative="1" as="geometry">
            <mxPoint x="680" y="-190" as="sourcePoint" />
            <mxPoint x="920" y="-60" as="targetPoint" />
          </mxGeometry>
        </mxCell>
        <mxCell id="lVq0YVk2atilzudD0r1q-28" value="&lt;b&gt;sprite_line_buffer&lt;/b&gt;" style="rounded=0;whiteSpace=wrap;html=1;direction=east;fontSize=18;verticalAlign=top;" parent="1" vertex="1">
          <mxGeometry x="750" y="60" width="170" height="100" as="geometry" />
        </mxCell>
        <mxCell id="lVq0YVk2atilzudD0r1q-29" value="" style="endArrow=classic;html=1;rounded=0;startArrow=classic;startFill=1;entryX=0;entryY=0.5;entryDx=0;entryDy=0;endFill=1;fontSize=18;shape=flexArrow;edgeStyle=orthogonalEdgeStyle;exitX=0.25;exitY=0;exitDx=0;exitDy=0;" parent="1" source="lVq0YVk2atilzudD0r1q-28" target="lVq0YVk2atilzudD0r1q-22" edge="1">
          <mxGeometry width="50" height="50" relative="1" as="geometry">
            <mxPoint x="780" y="20" as="sourcePoint" />
            <mxPoint x="800" y="-60" as="targetPoint" />
          </mxGeometry>
        </mxCell>
        <mxCell id="lVq0YVk2atilzudD0r1q-30" value="" style="endArrow=classic;html=1;rounded=0;startArrow=classic;startFill=1;endFill=1;fontSize=18;entryX=0.75;entryY=0;entryDx=0;entryDy=0;edgeStyle=elbowEdgeStyle;elbow=vertical;" parent="1" source="lVq0YVk2atilzudD0r1q-36" target="lVq0YVk2atilzudD0r1q-22" edge="1">
          <mxGeometry width="50" height="50" relative="1" as="geometry">
            <mxPoint x="1020" y="-90" as="sourcePoint" />
            <mxPoint x="1020" y="-60" as="targetPoint" />
          </mxGeometry>
        </mxCell>
        <mxCell id="lVq0YVk2atilzudD0r1q-31" value="" style="endArrow=classic;html=1;rounded=0;startArrow=none;startFill=0;endFill=1;edgeStyle=orthogonalEdgeStyle;entryX=0.75;entryY=0;entryDx=0;entryDy=0;fontSize=18;shape=flexArrow;" parent="1" source="lVq0YVk2atilzudD0r1q-28" target="lVq0YVk2atilzudD0r1q-32" edge="1">
          <mxGeometry width="50" height="50" relative="1" as="geometry">
            <mxPoint x="760" y="130" as="sourcePoint" />
            <mxPoint x="780" y="160" as="targetPoint" />
          </mxGeometry>
        </mxCell>
        <mxCell id="lVq0YVk2atilzudD0r1q-32" value="&lt;b&gt;Composer&lt;/b&gt;" style="rounded=0;whiteSpace=wrap;html=1;direction=east;fontSize=20;" parent="1" vertex="1">
          <mxGeometry x="550" y="293" width="200" height="60" as="geometry" />
        </mxCell>
        <mxCell id="lVq0YVk2atilzudD0r1q-33" value="" style="endArrow=classic;html=1;rounded=0;startArrow=none;startFill=0;endFill=1;edgeStyle=orthogonalEdgeStyle;entryX=0.379;entryY=0.001;entryDx=0;entryDy=0;entryPerimeter=0;fontSize=18;shape=flexArrow;exitX=0.75;exitY=1;exitDx=0;exitDy=0;" parent="1" source="lVq0YVk2atilzudD0r1q-19" target="lVq0YVk2atilzudD0r1q-32" edge="1">
          <mxGeometry width="50" height="50" relative="1" as="geometry">
            <mxPoint x="660" y="140" as="sourcePoint" />
            <mxPoint x="710" y="190" as="targetPoint" />
          </mxGeometry>
        </mxCell>
        <mxCell id="lVq0YVk2atilzudD0r1q-35" value="line_idx&lt;br style=&quot;font-size: 18px;&quot;&gt;render_start&lt;br style=&quot;font-size: 18px;&quot;&gt;frame_done" style="endArrow=none;html=1;rounded=0;targetPerimeterSpacing=0;startArrow=classic;startFill=1;edgeStyle=orthogonalEdgeStyle;entryX=1;entryY=0.25;entryDx=0;entryDy=0;fontSize=18;elbow=vertical;exitX=0.75;exitY=1;exitDx=0;exitDy=0;align=left;" parent="1" source="lVq0YVk2atilzudD0r1q-22" target="lVq0YVk2atilzudD0r1q-32" edge="1">
          <mxGeometry x="-0.8484" y="15" width="50" height="50" relative="1" as="geometry">
            <mxPoint x="860" y="130" as="sourcePoint" />
            <mxPoint x="720" y="290" as="targetPoint" />
            <Array as="points">
              <mxPoint x="1035" y="308" />
            </Array>
            <mxPoint as="offset" />
          </mxGeometry>
        </mxCell>
        <mxCell id="lVq0YVk2atilzudD0r1q-36" value="&lt;b&gt;sprite_attr_ram&lt;/b&gt;&lt;br style=&quot;font-size: 20px;&quot;&gt;256x32&lt;br style=&quot;font-size: 20px;&quot;&gt;DPRAM" style="rounded=0;whiteSpace=wrap;html=1;direction=east;fontSize=20;" parent="1" vertex="1">
          <mxGeometry x="950" y="-340" width="170" height="92" as="geometry" />
        </mxCell>
        <mxCell id="lVq0YVk2atilzudD0r1q-39" value="reg_if" style="endArrow=classic;html=1;rounded=0;startArrow=classic;startFill=1;endFill=1;entryX=1;entryY=0.75;entryDx=0;entryDy=0;fontSize=18;" parent="1" target="lVq0YVk2atilzudD0r1q-32" edge="1">
          <mxGeometry x="-1" y="30" width="50" height="50" relative="1" as="geometry">
            <mxPoint x="790" y="338" as="sourcePoint" />
            <mxPoint x="780" y="-10" as="targetPoint" />
            <mxPoint x="30" y="-28" as="offset" />
          </mxGeometry>
        </mxCell>
        <mxCell id="lVq0YVk2atilzudD0r1q-41" value="&lt;b&gt;video_vga&lt;/b&gt;" style="rounded=0;whiteSpace=wrap;html=1;direction=east;fontSize=20;" parent="1" vertex="1">
          <mxGeometry x="590" y="460" width="120" height="60" as="geometry" />
        </mxCell>
        <mxCell id="lVq0YVk2atilzudD0r1q-42" value="&lt;b&gt;palette_ram&lt;/b&gt;&lt;br style=&quot;font-size: 20px;&quot;&gt;256x16 DPRAM" style="rounded=0;whiteSpace=wrap;html=1;direction=east;fontSize=20;" parent="1" vertex="1">
          <mxGeometry x="860" y="450" width="180" height="80" as="geometry" />
        </mxCell>
        <mxCell id="lVq0YVk2atilzudD0r1q-43" value="palette_rgb_data&lt;br&gt;(4:4:4)" style="endArrow=none;html=1;rounded=0;endFill=0;startArrow=classic;startFill=1;fontSize=18;entryX=0;entryY=0.5;entryDx=0;entryDy=0;shape=flexArrow;" parent="1" source="lVq0YVk2atilzudD0r1q-41" target="lVq0YVk2atilzudD0r1q-42" edge="1">
          <mxGeometry x="0.0588" y="-30" width="50" height="50" relative="1" as="geometry">
            <mxPoint x="750" y="440" as="sourcePoint" />
            <mxPoint x="800" y="580" as="targetPoint" />
            <mxPoint x="1" as="offset" />
          </mxGeometry>
        </mxCell>
        <mxCell id="lVq0YVk2atilzudD0r1q-44" value="vga_if: 640x480@60Hz, rgb 4:4:4, hsync, vsync" style="endArrow=classic;html=1;rounded=0;endFill=1;fontSize=18;" parent="1" source="lVq0YVk2atilzudD0r1q-41" edge="1">
          <mxGeometry x="1" y="10" width="50" height="50" relative="1" as="geometry">
            <mxPoint x="620" y="590" as="sourcePoint" />
            <mxPoint x="650" y="550" as="targetPoint" />
            <mxPoint x="-10" y="9" as="offset" />
          </mxGeometry>
        </mxCell>
        <mxCell id="lVq0YVk2atilzudD0r1q-56" value="" style="endArrow=classic;html=1;rounded=0;targetPerimeterSpacing=0;startArrow=none;startFill=0;edgeStyle=orthogonalEdgeStyle;entryX=0;entryY=0.5;entryDx=0;entryDy=0;fontSize=18;shape=flexArrow;exitX=0.75;exitY=1;exitDx=0;exitDy=0;" parent="1" source="lVq0YVk2atilzudD0r1q-11" target="lVq0YVk2atilzudD0r1q-32" edge="1">
          <mxGeometry width="50" height="50" relative="1" as="geometry">
            <mxPoint x="430" y="370" as="sourcePoint" />
            <mxPoint x="480" y="320" as="targetPoint" />
            <Array as="points">
              <mxPoint x="276" y="323" />
            </Array>
          </mxGeometry>
        </mxCell>
        <mxCell id="lVq0YVk2atilzudD0r1q-72" value="rd_data (8)" style="text;html=1;strokeColor=none;fillColor=none;align=center;verticalAlign=middle;whiteSpace=wrap;rounded=0;fontSize=18;" parent="1" vertex="1">
          <mxGeometry x="350" y="290" width="190" height="30" as="geometry" />
        </mxCell>
        <mxCell id="lVq0YVk2atilzudD0r1q-76" value="rd_data (16)" style="text;html=1;strokeColor=none;fillColor=none;align=center;verticalAlign=middle;whiteSpace=wrap;rounded=0;fontSize=18;" parent="1" vertex="1">
          <mxGeometry x="660" y="240" width="205" height="30" as="geometry" />
        </mxCell>
        <mxCell id="lVq0YVk2atilzudD0r1q-78" value="rd_data (8)" style="text;html=1;strokeColor=none;fillColor=none;align=center;verticalAlign=middle;whiteSpace=wrap;rounded=0;fontSize=18;" parent="1" vertex="1">
          <mxGeometry x="480" y="230" width="190" height="30" as="geometry" />
        </mxCell>
        <mxCell id="lVq0YVk2atilzudD0r1q-80" value="&lt;br&gt;&lt;span style=&quot;color: rgb(0, 0, 0); font-family: Helvetica; font-size: 18px; font-style: normal; font-variant-ligatures: normal; font-variant-caps: normal; font-weight: 400; letter-spacing: normal; orphans: 2; text-indent: 0px; text-transform: none; widows: 2; word-spacing: 0px; -webkit-text-stroke-width: 0px; background-color: rgb(255, 255, 255); text-decoration-thickness: initial; text-decoration-style: initial; text-decoration-color: initial; float: none; display: inline !important;&quot;&gt;rd_idx&lt;/span&gt;&lt;br style=&quot;color: rgb(0, 0, 0); font-family: Helvetica; font-size: 18px; font-style: normal; font-variant-ligatures: normal; font-variant-caps: normal; font-weight: 400; letter-spacing: normal; orphans: 2; text-indent: 0px; text-transform: none; widows: 2; word-spacing: 0px; -webkit-text-stroke-width: 0px; text-decoration-thickness: initial; text-decoration-style: initial; text-decoration-color: initial;&quot;&gt;&lt;span style=&quot;color: rgb(0, 0, 0); font-family: Helvetica; font-size: 18px; font-style: normal; font-variant-ligatures: normal; font-variant-caps: normal; font-weight: 400; letter-spacing: normal; orphans: 2; text-indent: 0px; text-transform: none; widows: 2; word-spacing: 0px; -webkit-text-stroke-width: 0px; background-color: rgb(255, 255, 255); text-decoration-thickness: initial; text-decoration-style: initial; text-decoration-color: initial; float: none; display: inline !important;&quot;&gt;wr_idx&lt;br&gt;&lt;/span&gt;wr_en&lt;br style=&quot;color: rgb(0, 0, 0); font-family: Helvetica; font-size: 18px; font-style: normal; font-variant-ligatures: normal; font-variant-caps: normal; font-weight: 400; letter-spacing: normal; orphans: 2; text-indent: 0px; text-transform: none; widows: 2; word-spacing: 0px; -webkit-text-stroke-width: 0px; text-decoration-thickness: initial; text-decoration-style: initial; text-decoration-color: initial;&quot;&gt;&lt;span style=&quot;color: rgb(0, 0, 0); font-family: Helvetica; font-size: 18px; font-style: normal; font-variant-ligatures: normal; font-variant-caps: normal; font-weight: 400; letter-spacing: normal; orphans: 2; text-indent: 0px; text-transform: none; widows: 2; word-spacing: 0px; -webkit-text-stroke-width: 0px; background-color: rgb(255, 255, 255); text-decoration-thickness: initial; text-decoration-style: initial; text-decoration-color: initial; float: none; display: inline !important;&quot;&gt;wr_data (16)&lt;/span&gt;" style="text;html=1;strokeColor=none;fillColor=none;align=left;verticalAlign=middle;whiteSpace=wrap;rounded=0;fontSize=18;" parent="1" vertex="1">
          <mxGeometry x="810" y="-27" width="110" height="30" as="geometry" />
        </mxCell>
        <mxCell id="lVq0YVk2atilzudD0r1q-81" value="rd_data (16)" style="text;html=1;strokeColor=none;fillColor=none;align=center;verticalAlign=middle;whiteSpace=wrap;rounded=0;fontSize=18;" parent="1" vertex="1">
          <mxGeometry x="800" y="-93" width="110" height="30" as="geometry" />
        </mxCell>
        <mxCell id="lVq0YVk2atilzudD0r1q-82" value="display_data&lt;br&gt;(8)" style="endArrow=classic;html=1;rounded=0;targetPerimeterSpacing=0;entryX=0.5;entryY=0;entryDx=0;entryDy=0;edgeStyle=orthogonalEdgeStyle;exitX=0.75;exitY=1;exitDx=0;exitDy=0;fontSize=18;shape=flexArrow;" parent="1" source="lVq0YVk2atilzudD0r1q-32" target="lVq0YVk2atilzudD0r1q-42" edge="1">
          <mxGeometry x="0.7695" y="70" width="50" height="50" relative="1" as="geometry">
            <mxPoint x="830" y="420" as="sourcePoint" />
            <mxPoint x="880" y="370" as="targetPoint" />
            <mxPoint as="offset" />
          </mxGeometry>
        </mxCell>
        <mxCell id="lVq0YVk2atilzudD0r1q-83" value="" style="endArrow=classic;html=1;rounded=0;targetPerimeterSpacing=0;exitX=0.5;exitY=0;exitDx=0;exitDy=0;fontSize=18;" parent="1" source="lVq0YVk2atilzudD0r1q-41" target="lVq0YVk2atilzudD0r1q-32" edge="1">
          <mxGeometry width="50" height="50" relative="1" as="geometry">
            <mxPoint x="460" y="470" as="sourcePoint" />
            <mxPoint x="510" y="420" as="targetPoint" />
          </mxGeometry>
        </mxCell>
        <mxCell id="lVq0YVk2atilzudD0r1q-84" value="next_frame&lt;br style=&quot;background-color: rgb(248, 249, 250); font-size: 18px;&quot;&gt;next_line&lt;br style=&quot;background-color: rgb(248, 249, 250); font-size: 18px;&quot;&gt;next_pixel&lt;br style=&quot;background-color: rgb(248, 249, 250); font-size: 18px;&quot;&gt;vblank_pulse&lt;br style=&quot;font-size: 18px; background-color: rgb(248, 249, 250);&quot;&gt;" style="edgeLabel;html=1;align=right;verticalAlign=middle;resizable=0;points=[];fontSize=18;" parent="lVq0YVk2atilzudD0r1q-83" vertex="1" connectable="0">
          <mxGeometry x="0.26" y="-1" relative="1" as="geometry">
            <mxPoint x="-11" y="7" as="offset" />
          </mxGeometry>
        </mxCell>
        <mxCell id="lVq0YVk2atilzudD0r1q-85" value="sprite_idx" style="text;html=1;strokeColor=none;fillColor=none;align=center;verticalAlign=middle;whiteSpace=wrap;rounded=0;fontSize=18;" parent="1" vertex="1">
          <mxGeometry x="1070" y="-245" width="60" height="30" as="geometry" />
        </mxCell>
        <mxCell id="lVq0YVk2atilzudD0r1q-86" value="sprite_attr" style="text;html=1;strokeColor=none;fillColor=none;align=center;verticalAlign=middle;whiteSpace=wrap;rounded=0;fontSize=18;" parent="1" vertex="1">
          <mxGeometry x="1050" y="-123" width="60" height="30" as="geometry" />
        </mxCell>
        <mxCell id="lVq0YVk2atilzudD0r1q-88" value="rd_data (32)&lt;br&gt;ack" style="text;html=1;strokeColor=none;fillColor=none;align=right;verticalAlign=middle;whiteSpace=wrap;rounded=0;fontSize=18;" parent="1" vertex="1">
          <mxGeometry x="170" y="-123" width="120" height="30" as="geometry" />
        </mxCell>
        <mxCell id="lVq0YVk2atilzudD0r1q-90" value="rd_data (32)&lt;br&gt;ack" style="text;html=1;strokeColor=none;fillColor=none;align=right;verticalAlign=middle;whiteSpace=wrap;rounded=0;fontSize=18;" parent="1" vertex="1">
          <mxGeometry x="450" y="-117" width="130" height="30" as="geometry" />
        </mxCell>
        <mxCell id="lVq0YVk2atilzudD0r1q-92" value="rd_data (32)&lt;br&gt;ack" style="text;html=1;strokeColor=none;fillColor=none;align=right;verticalAlign=middle;whiteSpace=wrap;rounded=0;fontSize=18;" parent="1" vertex="1">
          <mxGeometry x="810" y="-123" width="170" height="30" as="geometry" />
        </mxCell>
        <mxCell id="lVq0YVk2atilzudD0r1q-94" value="wishbone&lt;br&gt;bus (32)" style="endArrow=none;startArrow=classic;html=1;rounded=0;targetPerimeterSpacing=0;exitX=1;exitY=0.5;exitDx=0;exitDy=0;fontSize=18;endFill=0;" parent="1" source="lVq0YVk2atilzudD0r1q-42" edge="1">
          <mxGeometry x="1" y="-36" width="50" height="50" relative="1" as="geometry">
            <mxPoint x="970" y="520" as="sourcePoint" />
            <mxPoint x="1070" y="490" as="targetPoint" />
            <mxPoint x="20" y="-6" as="offset" />
          </mxGeometry>
        </mxCell>
        <mxCell id="lVq0YVk2atilzudD0r1q-101" value="rd_idx" style="endArrow=classic;html=1;rounded=0;fontSize=18;targetPerimeterSpacing=0;elbow=vertical;entryX=0.25;entryY=1;entryDx=0;entryDy=0;" parent="1" target="lVq0YVk2atilzudD0r1q-11" edge="1">
          <mxGeometry x="-1" y="10" width="50" height="50" relative="1" as="geometry">
            <mxPoint x="196" y="200" as="sourcePoint" />
            <mxPoint x="226" y="140" as="targetPoint" />
            <mxPoint x="9" y="10" as="offset" />
          </mxGeometry>
        </mxCell>
        <mxCell id="lVq0YVk2atilzudD0r1q-102" value="rd_idx" style="endArrow=classic;html=1;rounded=0;fontSize=18;targetPerimeterSpacing=0;elbow=vertical;entryX=0.25;entryY=1;entryDx=0;entryDy=0;" parent="1" target="lVq0YVk2atilzudD0r1q-19" edge="1">
          <mxGeometry x="-1" y="10" width="50" height="50" relative="1" as="geometry">
            <mxPoint x="480" y="180" as="sourcePoint" />
            <mxPoint x="227.5" y="130" as="targetPoint" />
            <mxPoint x="9" y="10" as="offset" />
          </mxGeometry>
        </mxCell>
        <mxCell id="lVq0YVk2atilzudD0r1q-105" value="addr&lt;br&gt;strobe" style="endArrow=classic;html=1;rounded=0;fontSize=18;targetPerimeterSpacing=0;elbow=vertical;entryX=0.311;entryY=1.007;entryDx=0;entryDy=0;entryPerimeter=0;align=right;" parent="1" target="lVq0YVk2atilzudD0r1q-37" edge="1">
          <mxGeometry x="-0.362" y="9" width="50" height="50" relative="1" as="geometry">
            <mxPoint x="439" y="-160" as="sourcePoint" />
            <mxPoint x="290" y="-180" as="targetPoint" />
            <mxPoint as="offset" />
          </mxGeometry>
        </mxCell>
        <mxCell id="lVq0YVk2atilzudD0r1q-107" value="addr&lt;br&gt;strobe" style="endArrow=classic;html=1;rounded=0;fontSize=18;targetPerimeterSpacing=0;elbow=vertical;entryX=0;entryY=1;entryDx=0;entryDy=0;" parent="1" target="lVq0YVk2atilzudD0r1q-132" edge="1">
          <mxGeometry x="-0.0698" y="30" width="50" height="50" relative="1" as="geometry">
            <mxPoint x="560" y="-150" as="sourcePoint" />
            <mxPoint x="580" y="-180" as="targetPoint" />
            <mxPoint as="offset" />
          </mxGeometry>
        </mxCell>
        <mxCell id="lVq0YVk2atilzudD0r1q-108" value="addr&lt;br&gt;strobe" style="endArrow=classic;html=1;rounded=0;fontSize=18;targetPerimeterSpacing=0;elbow=vertical;entryX=0.75;entryY=1;entryDx=0;entryDy=0;align=right;" parent="1" target="lVq0YVk2atilzudD0r1q-133" edge="1">
          <mxGeometry x="-0.3939" y="10" width="50" height="50" relative="1" as="geometry">
            <mxPoint x="705" y="-160" as="sourcePoint" />
            <mxPoint x="760" y="-180" as="targetPoint" />
            <mxPoint y="1" as="offset" />
          </mxGeometry>
        </mxCell>
        <mxCell id="lVq0YVk2atilzudD0r1q-110" value="512x8&lt;br&gt;DPRAM" style="rounded=0;whiteSpace=wrap;html=1;fontSize=18;" parent="1" vertex="1">
          <mxGeometry x="216" y="100" width="90" height="45" as="geometry" />
        </mxCell>
        <mxCell id="lVq0YVk2atilzudD0r1q-113" value="512x8&lt;br&gt;DPRAM" style="rounded=0;whiteSpace=wrap;html=1;fontSize=18;" parent="1" vertex="1">
          <mxGeometry x="500" y="100" width="90" height="45" as="geometry" />
        </mxCell>
        <mxCell id="lVq0YVk2atilzudD0r1q-119" value="256x16&lt;br&gt;DPRAM" style="rounded=0;whiteSpace=wrap;html=1;fontSize=18;" parent="1" vertex="1">
          <mxGeometry x="800" y="100" width="80" height="50" as="geometry" />
        </mxCell>
        <mxCell id="lVq0YVk2atilzudD0r1q-123" value="rd_idx&lt;br&gt;erase_start" style="endArrow=classic;html=1;rounded=0;fontSize=18;targetPerimeterSpacing=0;align=left;entryX=0.75;entryY=1;entryDx=0;entryDy=0;" parent="1" target="lVq0YVk2atilzudD0r1q-28" edge="1">
          <mxGeometry x="-1" y="-16" width="50" height="50" relative="1" as="geometry">
            <mxPoint x="878" y="200" as="sourcePoint" />
            <mxPoint x="880" y="240" as="targetPoint" />
            <mxPoint y="1" as="offset" />
          </mxGeometry>
        </mxCell>
        <mxCell id="lVq0YVk2atilzudD0r1q-124" value="" style="endArrow=none;html=1;rounded=0;fontSize=18;targetPerimeterSpacing=0;startArrow=classic;startFill=1;exitX=0.5;exitY=0;exitDx=0;exitDy=0;endFill=0;" parent="1" source="lVq0YVk2atilzudD0r1q-36" edge="1">
          <mxGeometry x="1" y="10" width="50" height="50" relative="1" as="geometry">
            <mxPoint x="1030" y="-345" as="sourcePoint" />
            <mxPoint x="1035" y="-365" as="targetPoint" />
            <mxPoint x="10" y="-11" as="offset" />
          </mxGeometry>
        </mxCell>
        <mxCell id="lVq0YVk2atilzudD0r1q-127" value="128KB&lt;br&gt;DPRAM" style="rounded=0;whiteSpace=wrap;html=1;fontSize=18;" parent="1" vertex="1">
          <mxGeometry x="440" y="-350" width="167.5" height="50" as="geometry" />
        </mxCell>
        <mxCell id="lVq0YVk2atilzudD0r1q-131" value="prio 1" style="text;html=1;strokeColor=none;fillColor=none;align=center;verticalAlign=middle;whiteSpace=wrap;rounded=0;fontSize=18;" parent="1" vertex="1">
          <mxGeometry x="450" y="-223" width="60" height="30" as="geometry" />
        </mxCell>
        <mxCell id="lVq0YVk2atilzudD0r1q-132" value="prio 2" style="text;html=1;strokeColor=none;fillColor=none;align=center;verticalAlign=middle;whiteSpace=wrap;rounded=0;fontSize=18;" parent="1" vertex="1">
          <mxGeometry x="560" y="-223" width="60" height="30" as="geometry" />
        </mxCell>
        <mxCell id="lVq0YVk2atilzudD0r1q-133" value="prio 3" style="text;html=1;strokeColor=none;fillColor=none;align=center;verticalAlign=middle;whiteSpace=wrap;rounded=0;fontSize=18;" parent="1" vertex="1">
          <mxGeometry x="660" y="-223" width="60" height="30" as="geometry" />
        </mxCell>
        <mxCell id="lVq0YVk2atilzudD0r1q-136" value="Time Slot Scheduled Bus, 3 equal slots (32)" style="shape=flexArrow;endArrow=classic;html=1;rounded=0;fontSize=18;targetPerimeterSpacing=0;startArrow=block;width=49.411764705882355;startSize=11.799999999999999;endSize=13.76470588235294;" parent="1" edge="1">
          <mxGeometry width="50" height="50" relative="1" as="geometry">
            <mxPoint x="297.5" y="-250" as="sourcePoint" />
            <mxPoint x="777.5" y="-250" as="targetPoint" />
            <Array as="points" />
          </mxGeometry>
        </mxCell>
        <mxCell id="lVq0YVk2atilzudD0r1q-140" value="&lt;font style=&quot;font-size: 24px;&quot;&gt;3x&lt;/font&gt;" style="text;html=1;strokeColor=none;fillColor=none;align=center;verticalAlign=middle;whiteSpace=wrap;rounded=0;fontSize=18;" parent="1" vertex="1">
          <mxGeometry x="166" y="107.5" width="60" height="30" as="geometry" />
        </mxCell>
        <mxCell id="lVq0YVk2atilzudD0r1q-141" value="&lt;font style=&quot;font-size: 24px;&quot;&gt;3x&lt;/font&gt;" style="text;html=1;strokeColor=none;fillColor=none;align=center;verticalAlign=middle;whiteSpace=wrap;rounded=0;fontSize=18;" parent="1" vertex="1">
          <mxGeometry x="444.5" y="107.5" width="60" height="30" as="geometry" />
        </mxCell>
        <mxCell id="lVq0YVk2atilzudD0r1q-143" value="&lt;font style=&quot;font-size: 24px;&quot;&gt;6x&lt;/font&gt;" style="text;html=1;strokeColor=none;fillColor=none;align=center;verticalAlign=middle;whiteSpace=wrap;rounded=0;fontSize=18;" parent="1" vertex="1">
          <mxGeometry x="750" y="107.5" width="60" height="30" as="geometry" />
        </mxCell>
        <mxCell id="CwSzC2XVGOgtJNvMWzUx-1" value="vera_top&lt;br&gt;registers" style="rounded=0;whiteSpace=wrap;html=1;fontSize=18;fontStyle=1" parent="1" vertex="1">
          <mxGeometry x="810" y="-340" width="120" height="90" as="geometry" />
        </mxCell>
        <mxCell id="CwSzC2XVGOgtJNvMWzUx-2" value="" style="endArrow=classic;startArrow=classic;html=1;rounded=0;fontSize=18;exitX=0.5;exitY=0;exitDx=0;exitDy=0;" parent="1" source="CwSzC2XVGOgtJNvMWzUx-1" edge="1">
          <mxGeometry x="1" y="-14" width="50" height="50" relative="1" as="geometry">
            <mxPoint x="845" y="-340" as="sourcePoint" />
            <mxPoint x="870" y="-370" as="targetPoint" />
            <mxPoint x="-4" y="-10" as="offset" />
          </mxGeometry>
        </mxCell>
        <mxCell id="CwSzC2XVGOgtJNvMWzUx-3" value="reg_if" style="endArrow=classic;startArrow=classic;html=1;rounded=0;fontSize=18;entryX=0.5;entryY=1;entryDx=0;entryDy=0;" parent="1" target="CwSzC2XVGOgtJNvMWzUx-1" edge="1">
          <mxGeometry x="-1" y="-20" width="50" height="50" relative="1" as="geometry">
            <mxPoint x="870" y="-220" as="sourcePoint" />
            <mxPoint x="905" y="-270" as="targetPoint" />
            <mxPoint x="-20" y="20" as="offset" />
          </mxGeometry>
        </mxCell>
        <mxCell id="CwSzC2XVGOgtJNvMWzUx-6" value="wishbone bus (32)" style="text;html=1;strokeColor=none;fillColor=none;align=center;verticalAlign=middle;whiteSpace=wrap;rounded=0;fontSize=18;" parent="1" vertex="1">
          <mxGeometry x="840" y="-410" width="80" height="30" as="geometry" />
        </mxCell>
        <mxCell id="CwSzC2XVGOgtJNvMWzUx-7" value="wishbone bus (32)" style="text;html=1;strokeColor=none;fillColor=none;align=center;verticalAlign=middle;whiteSpace=wrap;rounded=0;fontSize=18;" parent="1" vertex="1">
          <mxGeometry x="1005" y="-410" width="75" height="30" as="geometry" />
        </mxCell>
        <mxCell id="mYMNVHzP6dWd-MUhmtwK-1" value="" style="shape=flexArrow;endArrow=classic;startArrow=classic;html=1;rounded=0;fontSize=18;targetPerimeterSpacing=0;entryX=0;entryY=0.5;entryDx=0;entryDy=0;startWidth=24;startSize=5.99;width=22;endWidth=24;endSize=5.99;fillColor=default;" edge="1" parent="1">
          <mxGeometry width="100" height="100" relative="1" as="geometry">
            <mxPoint x="225" y="-325.25" as="sourcePoint" />
            <mxPoint x="440" y="-325" as="targetPoint" />
            <Array as="points" />
          </mxGeometry>
        </mxCell>
        <mxCell id="mYMNVHzP6dWd-MUhmtwK-2" value="wishbone bus (32 bits)" style="text;html=1;strokeColor=none;fillColor=none;align=center;verticalAlign=middle;whiteSpace=wrap;rounded=0;fontSize=18;" vertex="1" parent="1">
          <mxGeometry x="110" y="-340" width="105" height="30" as="geometry" />
        </mxCell>
      </root>
    </mxGraphModel>
  </diagram>
</mxfile>
